<?xml version="1.0" encoding="utf-8"?>
<!-- Generator: Adobe Illustrator 16.0.0, SVG Export Plug-In . SVG Version: 6.00 Build 0)  -->
<!DOCTYPE svg PUBLIC "-//W3C//DTD SVG 1.1//EN" "http://www.w3.org/Graphics/SVG/1.1/DTD/svg11.dtd">
<svg version="1.1" id="Calque_1" xmlns="http://www.w3.org/2000/svg" xmlns:xlink="http://www.w3.org/1999/xlink" x="0px" y="0px"
	 width="369.117px" height="57.6px" viewBox="42.72 170.809 369.117 57.6" enable-background="new 42.72 170.809 369.117 57.6"
	 xml:space="preserve">
<g>
	<path fill="#CD071E" d="M383.598,213.529c0-2.96,1.04-3.84,6-4.08v5.68c-0.8,0.881-2.8,1.44-3.76,1.44
		C384.398,216.569,383.598,215.689,383.598,213.529 M365.438,214.489c0,8.56,5.279,13.92,13.039,13.92c5.601,0,8.961-1.2,13.2-4.08
		c2.08,2.8,5.279,4.08,10.239,4.08c4.08,0,7.44-1.12,9.921-2.72l-1.28-13.44c-0.399,0.16-1.119,0.24-1.521,0.24
		c-0.64,0-1.279-0.479-1.279-2.479v-10.24c0-10.88-6.24-16.96-22.721-16.96c-5.68,0-12.561,1.199-17.6,2.72l2.8,14
		c4.641-1.36,10.16-1.84,13.359-1.84c3.681,0,5.92,0.479,5.92,2.24v0.159C372.077,201.049,365.438,203.609,365.438,214.489
		 M295.758,227.609h15.76v-29.2c1.601-0.88,3.12-1.439,4.721-1.439c2.479,0,3.84,1.68,3.84,4.8v25.84h15.761v-27.2
		c0-0.479-0.08-1.84-0.16-2c1.601-0.8,3.12-1.439,4.88-1.439c2.561,0,3.761,1.6,3.761,4.8v25.84h15.76v-31.76
		c0-7.84-4.239-12.801-12.079-12.801c-5.28,0-9.601,1.681-14.641,4.961c-1.761-3.2-4.641-4.961-10-4.961
		c-4.32,0-8.561,1.28-13.439,4.561v-3.76h-14.16v43.76H295.758z M260.398,215.369c0-5.28,4.8-6.479,13.44-7.12v8.479
		c-2.32,2.319-5.92,3.84-8.88,3.84C262.158,220.569,260.398,218.889,260.398,215.369 M248.718,216.089
		c0,7.761,4.8,12.32,11.76,12.32c6.24,0,10.561-2.16,14.561-5.2c1.279,3.521,3.92,5.2,8.239,5.2c2.801,0,5.2-0.72,7.2-1.92
		l-0.96-8.72c-0.56,0.24-1.359,0.319-1.92,0.319c-1.28,0-2.16-0.72-2.16-3.6v-16.16c0-9.76-5.76-14.88-18.88-14.88
		c-4.88,0-10.64,0.96-15.439,2.4l1.92,9.04c4.56-1.36,9.439-1.841,12.72-1.841c5.2,0,8,1.761,8,5.36v3.521
		C256.638,203.209,248.718,205.529,248.718,216.089 M227.518,184.409h-8.96v43.2h9.92v-29.76c3.76-3.04,7.04-4.16,10.32-4.16
		c1.68,0,3.76,0.24,5.68,0.72l1.601-9.92c-1.841-0.64-3.92-0.88-5.92-0.88c-4.641,0-8.08,1.68-12.641,5.92V184.409z M179.439,206.01
		c0-12,2.8-16.4,11.36-16.4c8.479,0,11.28,4.4,11.28,16.4c0,12.399-3.2,16.56-11.28,16.56S179.439,218.409,179.439,206.01
		 M171.759,206.01c0,15.439,5.28,22.399,19.04,22.399s19.04-6.96,19.04-22.399c0-15.04-4.72-22.16-19.04-22.16
		C176.399,183.849,171.759,190.969,171.759,206.01 M130.159,227.609h5.04v-35.04c4.56-2.32,8.479-4,13.279-4
		c5.76,0,8.561,3.04,8.561,8.56v30.48h5.04v-32c0-7.601-4.16-11.521-11.681-11.521c-5.84,0-10.319,1.761-15.6,4.561v-3.76h-4.64
		V227.609L130.159,227.609z M89.52,217.689c0-8.24,9.44-9.84,22.72-11.12v12.24c-4.159,4.08-9.76,6.88-15.199,6.88
		C92.48,225.689,89.52,222.969,89.52,217.689 M86,218.169c0,6.721,4.08,10.24,10.16,10.24c6.88,0,12.399-3.28,16.239-6.64
		c0.24,4.56,2.16,6.64,5.681,6.64c1.439,0,2.479-0.32,3.84-0.96l-0.641-2.72c-0.8,0.319-1.6,0.479-2.399,0.479
		c-2.08,0-3.28-1.12-3.28-5.12v-23.6c0-8.24-5.04-12.24-14-12.24c-3.84,0-8.24,0.721-12.72,2l0.72,2.88
		c4.561-1.359,8.64-1.84,11.92-1.84c7.2,0,10.72,3.36,10.72,9.28v7.68C95.36,205.929,86,207.929,86,218.169 M42.72,227.609h2.16
		v-21.84c5.68,0.16,8.96,0.16,13.84,0.16c14.24,0,20.16-4.721,20.16-18.16c0-12.48-4.24-16.96-20.96-16.96
		c-2.96,0-6.8,0.16-15.2,0.64V227.609z M44.88,173.209c7.28-0.399,10.399-0.56,13.2-0.56c15.04,0,18.64,4.32,18.64,15.2
		c0,11.68-4.56,16.08-18.16,16.08c-5.28,0-8.24-0.08-13.68-0.24V173.209z"/>
</g>
</svg>
