<?xml version="1.0" id="Calque_2" encoding="utf-8" standalone="yes"?>
<!DOCTYPE svg PUBLIC "-//W3C//DTD SVG 1.1//EN" "http://www.w3.org/Graphics/SVG/1.1/DTD/svg11.dtd">
<svg version="1.1" id="Calque_1" xmlns="http://www.w3.org/2000/svg" xmlns:xlink="http://www.w3.org/1999/xlink" x="0px" y="0px"
	 width="100%" height="100%" viewBox="0 0 500 500" enable-background="new 0 0 500 500" xml:space="preserve">
<path fill="none" stroke="#DC0A00" stroke-miterlimit="10" d="M127.57,360.174c28.963,46.806,80.131,78.416,138.805,80.122"/>
<path fill="none" stroke="#DC0A00" stroke-miterlimit="10" d="M122.557,191.229c-12.872,23.85-20.182,51.144-20.182,80.146
	s7.31,56.297,20.182,80.146"/>
<path fill="none" stroke="#DC0A00" stroke-miterlimit="10" d="M276.375,440.296c58.674-1.706,109.841-33.316,138.805-80.122"/>
<path fill="none" stroke="#DC0A00" stroke-miterlimit="10" d="M266.375,102.454c-58.674,1.706-109.841,33.316-138.805,80.122"/>
<path fill="none" stroke="#DC0A00" stroke-miterlimit="10" d="M415.18,182.576c-28.963-46.806-80.131-78.416-138.805-80.122"/>
<path fill="none" stroke="#DC0A00" stroke-miterlimit="10" d="M420.193,351.521c12.872-23.85,20.182-51.144,20.182-80.146
	s-7.31-56.297-20.182-80.146"/>
<line fill="none" stroke="#DC0A00" stroke-miterlimit="10" x1="271.375" y1="445.686" x2="271.375" y2="542.75"/>
<line fill="none" stroke="#DC0A00" stroke-miterlimit="10" x1="271.375" y1="0" x2="271.375" y2="97.113"/>
<line fill="none" stroke="#DC0A00" stroke-miterlimit="10" x1="422.332" y1="358.53" x2="506.393" y2="407.062"/>
<line fill="none" stroke="#DC0A00" stroke-miterlimit="10" x1="36.357" y1="135.688" x2="120.46" y2="184.244"/>
<line fill="none" stroke="#DC0A00" stroke-miterlimit="10" x1="422.332" y1="184.22" x2="506.393" y2="135.688"/>
<line fill="none" stroke="#DC0A00" stroke-miterlimit="10" x1="36.357" y1="407.062" x2="120.46" y2="358.506"/>
<circle fill="none" stroke="#DC0A00" stroke-miterlimit="10" cx="271.375" cy="102.454" r="5"/>
<circle fill="none" stroke="#DC0A00" stroke-miterlimit="10" cx="271.375" cy="440.296" r="5"/>
<circle fill="none" stroke="#DC0A00" stroke-miterlimit="10" cx="125.085" cy="186.916" r="5"/>
<circle fill="none" stroke="#DC0A00" stroke-miterlimit="10" cx="417.666" cy="355.836" r="5"/>
<circle fill="none" stroke="#DC0A00" stroke-miterlimit="10" cx="125.086" cy="355.836" r="4.999"/>
<circle fill="none" stroke="#DC0A00" stroke-miterlimit="10" cx="417.666" cy="186.914" r="5"/>
<g>
	<circle fill="none" stroke="#DC0A00" stroke-width="3" stroke-miterlimit="10" cx="271.375" cy="102.454" r="0.5"/>
	<circle fill="none" stroke="#DC0A00" stroke-width="3" stroke-miterlimit="10" cx="271.375" cy="440.296" r="0.5"/>
	<circle fill="none" stroke="#DC0A00" stroke-width="3" stroke-miterlimit="10" cx="125.086" cy="186.915" r="0.501"/>
	<circle fill="none" stroke="#DC0A00" stroke-width="3" stroke-miterlimit="10" cx="417.665" cy="355.836" r="0.501"/>
	<circle fill="none" stroke="#DC0A00" stroke-width="3" stroke-miterlimit="10" cx="125.086" cy="355.836" r="0.501"/>
	<circle fill="none" stroke="#DC0A00" stroke-width="3" stroke-miterlimit="10" cx="417.666" cy="186.915" r="0.5"/>
</g>
</svg>


